<svg width="713" height="713" viewBox="0 0 713 713" fill="none" xmlns="http://www.w3.org/2000/svg">
<path d="M330.016 0.829605C365.909 -1.47706 402.203 0.936271 437.256 9.20294C482.696 19.8163 526.109 39.3096 563.789 66.8963C604.883 95.6829 638.683 134.163 664.163 177.23C691.763 224.67 708.056 278.55 711.416 333.323C712.669 358.216 712.069 383.296 708.309 407.963C704.723 434.816 697.203 460.99 687.656 486.283C665.176 543.07 627.949 593.95 580.616 632.55C560.709 647.843 540.083 662.43 517.456 673.43C422.496 722.536 305.029 724.79 208.043 679.99C162.096 658.936 120.736 627.976 87.4426 589.963C56.7359 554.096 32.2159 512.576 17.8159 467.51C-8.15743 389.39 -5.54409 302.31 24.4292 225.696C49.7892 161.896 93.4959 105.176 149.856 65.7763C202.283 27.8563 265.536 5.45627 330.016 0.829605ZM320.629 9.00294C285.509 12.9229 250.736 21.4563 218.283 35.5896C189.843 47.5763 163.349 63.9629 139.189 83.1229C123.549 95.8029 108.443 109.256 95.4559 124.683C64.9226 158.763 41.1626 198.91 26.3092 242.19C18.4292 265.923 12.5892 290.363 9.70923 315.216C0.575896 392.923 18.0959 473.803 59.9226 540.056C86.1892 581.883 121.109 618.31 162.229 645.723C202.936 673.59 249.963 691.736 298.536 699.91C351.789 708.83 407.096 705.176 458.696 689.256C505.949 675.03 549.816 650.003 586.643 617.203C605.883 600.896 622.496 581.71 637.576 561.563C664.549 524.936 684.283 482.963 694.736 438.67C709.803 377.923 707.723 313.123 689.309 253.336C674.496 203.95 647.709 158.443 612.963 120.47C599.403 105.083 583.669 91.7896 567.696 79.0029C546.989 63.3896 524.896 49.4429 501.189 38.8696C445.083 13.0296 382.043 2.9496 320.629 9.00294Z" fill="#5E1914"/>
<path d="M324.683 15.4829C385.629 9.82961 448.029 20.9229 503.229 47.4029C544.776 67.1763 582.283 95.4429 612.643 130.016C643.016 164.483 666.323 205.15 680.696 248.776C697.389 298.923 702.016 352.976 694.416 405.256C687.416 453.39 669.976 499.963 643.656 540.87C619.896 577.896 588.896 610.256 552.896 635.55C511.429 664.776 463.376 684.59 413.376 693.083C359.643 702.243 303.723 698.35 251.829 681.63C209.789 668.19 170.403 646.51 136.563 618.163C100.323 587.896 70.5093 549.976 49.6292 507.63C13.7892 435.896 4.62924 351.336 24.2026 273.576C35.4426 228.31 56.0426 185.39 84.4026 148.363C110.696 113.843 143.709 84.4963 180.976 62.2963C224.603 36.2696 274.083 20.1363 324.683 15.4829ZM338.003 191.55C315.963 193.523 293.789 199.79 275.696 212.923C254.963 227.443 240.963 250.123 234.429 274.336C226.323 301.696 228.216 330.496 228.003 358.656C228.216 380.27 226.923 402.11 231.149 423.456C235.643 448.15 246.123 472.576 264.723 489.923C282.589 507.216 306.803 516.83 331.283 519.67C357.283 522.59 384.176 521.643 409.136 513.216C429.363 506.27 448.416 494.643 461.736 477.67C475.416 460.71 483.896 439.123 484.069 417.243C484.483 412.75 480.083 409.736 476.029 409.563C468.016 408.99 459.976 409.35 451.963 409.31C447.509 409.27 442.203 410.243 440.069 414.67C437.029 421.016 436.149 428.123 433.669 434.696C429.016 448.83 420.376 462.35 407.216 469.896C390.149 479.63 370.043 482.656 350.643 482.123C330.069 481.376 308.656 474.496 294.643 458.75C279.536 442.07 275.216 418.71 274.149 396.936C273.643 375.283 273.109 353.616 273.789 331.963C273.856 308.296 275.189 283.163 287.709 262.363C299.136 243.31 320.803 232.656 342.389 230.456C365.083 228.39 389.176 231.07 408.949 243.136C424.536 253.056 432.989 270.79 436.936 288.296C438.349 293.843 440.109 301.416 446.949 302.23C455.736 303.163 464.616 302.603 473.456 302.603C478.176 302.803 484.149 300.11 484.056 294.643C483.856 257.496 459.989 222.47 426.869 206.376C399.776 191.963 368.149 189.256 338.003 191.55Z" fill="#5E1914"/>
</svg>
